<svg xmlns="http://www.w3.org/2000/svg" viewBox="0 0 100 100" width="100" height="100">
  <defs>
    <linearGradient id="g" x1="0%" y1="0%" x2="100%" y2="100%">
      <stop offset="0%" stop-color="#6366F1"/>
      <stop offset="100%" stop-color="#8B5CF6"/>
    </linearGradient>
  </defs>
  <rect width="100" height="100" rx="22" ry="22" fill="url(#g)"/>
  <g transform="translate(50,50)">
    <path d="M -8,-26 L -5,-34 5,-34 8,-26
             Q 14,-24 19,-19
             L 26,-8 34,-5 34,5 26,8
             Q 24,14 19,19
             L 8,26 5,34 -5,34 -8,26
             Q -14,24 -19,19
             L -26,8 -34,5 -34,-5 -26,-8
             Q -24,-14 -19,-19
             L -8,-26 Z"
      fill="none" stroke="white" stroke-width="5.5" stroke-linejoin="round"/>
    <circle cx="0" cy="0" r="14" fill="url(#g)"/>
  </g>
  <polyline
    points="32,65 42,48 50,54 62,36"
    fill="none" stroke="white" stroke-width="5"
    stroke-linecap="round" stroke-linejoin="round"/>
  <polyline
    points="53,33 62,36 59,45"
    fill="none" stroke="white" stroke-width="5"
    stroke-linecap="round" stroke-linejoin="round"/>
</svg>
